<svg id="svg" version="1.1" xmlns="http://www.w3.org/2000/svg" xmlns:xlink="http://www.w3.org/1999/xlink" width="400" height="496.2843295638126" viewBox="0, 0, 400,496.2843295638126"><g id="svgg"><path id="path0" d="M141.966 1.963 C 140.782 2.973,138.468 5.105,136.822 6.700 C 135.176 8.295,133.725 9.600,133.597 9.600 C 133.114 9.600,124.758 17.922,125.071 18.092 C 125.252 18.189,125.161 18.209,124.869 18.135 C 124.348 18.004,118.740 22.990,112.120 29.470 C 110.283 31.268,108.621 32.798,108.427 32.870 C 108.232 32.941,106.318 34.620,104.173 36.600 C 102.028 38.580,98.708 41.640,96.797 43.400 C 94.885 45.160,91.449 48.350,89.160 50.489 C 86.872 52.628,84.317 54.953,83.482 55.655 C 82.489 56.491,82.047 57.147,82.204 57.554 C 82.335 57.896,82.319 58.052,82.169 57.902 C 81.764 57.497,80.595 58.230,78.482 60.214 C 76.413 62.156,71.845 66.367,67.200 70.613 C 65.550 72.121,63.556 73.995,62.770 74.778 C 61.983 75.560,60.522 76.920,59.523 77.800 C 56.371 80.575,51.186 85.306,48.454 87.900 C 47.005 89.275,45.681 90.400,45.510 90.400 C 45.340 90.400,45.200 90.670,45.200 91.000 C 45.200 91.330,44.975 91.600,44.700 91.600 C 44.425 91.600,42.832 92.905,41.161 94.500 C 38.281 97.248,30.727 104.211,28.259 106.392 C 27.631 106.946,26.084 108.390,24.820 109.600 C 23.557 110.810,21.640 112.592,20.562 113.559 C 14.799 118.727,11.109 122.092,8.409 124.642 C 6.754 126.206,4.510 128.276,3.422 129.242 C -0.052 132.330,0.000 132.252,0.000 134.398 L 0.000 136.396 36.500 136.500 L 73.000 136.604 36.500 136.702 C 12.499 136.766,0.000 136.937,0.000 137.200 C 0.000 137.464,12.200 137.600,35.800 137.600 L 71.600 137.600 71.600 301.243 C 71.600 446.539,71.667 464.860,72.200 464.655 C 72.530 464.529,72.800 464.599,72.800 464.813 C 72.800 465.026,73.205 465.221,73.700 465.246 C 74.377 465.281,74.427 465.338,73.900 465.476 C 73.293 465.634,72.869 466.400,73.388 466.400 C 73.704 466.400,77.391 463.821,77.533 463.500 C 77.607 463.335,77.852 463.200,78.078 463.200 C 78.485 463.200,80.288 461.856,82.237 460.100 C 82.787 459.605,83.400 459.200,83.600 459.200 C 83.800 459.200,84.381 458.795,84.891 458.300 C 85.401 457.805,86.878 456.683,88.174 455.807 C 89.469 454.930,90.725 454.028,90.965 453.802 C 91.204 453.575,91.901 453.069,92.513 452.677 C 93.125 452.285,93.520 451.795,93.392 451.587 C 93.264 451.379,93.438 451.316,93.779 451.447 C 94.121 451.578,94.400 451.486,94.400 451.243 C 94.400 450.999,94.662 450.800,94.982 450.800 C 95.642 450.800,97.600 448.974,97.600 448.358 C 97.600 448.135,97.779 448.063,97.997 448.198 C 98.216 448.333,100.151 447.129,102.297 445.522 C 104.444 443.915,106.740 442.263,107.400 441.852 C 108.060 441.440,108.744 440.855,108.920 440.552 C 109.096 440.248,109.458 440.000,109.724 440.000 C 109.990 440.000,110.666 439.595,111.225 439.100 C 111.785 438.605,112.593 438.002,113.021 437.761 C 113.450 437.519,113.981 436.965,114.203 436.528 C 114.425 436.092,114.797 435.799,115.030 435.877 C 115.570 436.057,117.808 434.159,117.345 433.914 C 117.155 433.813,117.250 433.796,117.556 433.875 C 118.184 434.037,120.035 432.952,120.520 432.137 C 120.696 431.842,121.056 431.597,121.320 431.594 C 121.584 431.590,122.379 431.095,123.086 430.494 C 123.794 429.892,125.022 428.950,125.816 428.400 C 126.610 427.850,127.667 427.017,128.164 426.548 C 128.661 426.079,129.458 425.572,129.934 425.421 C 130.410 425.270,130.800 425.007,130.800 424.837 C 130.800 424.667,131.205 424.343,131.700 424.117 C 132.195 423.891,133.354 423.097,134.276 422.353 C 135.198 421.609,136.604 420.550,137.400 420.000 C 138.196 419.450,139.062 418.816,139.324 418.592 C 139.586 418.367,140.746 417.496,141.902 416.656 C 143.068 415.809,143.886 414.939,143.740 414.703 C 143.584 414.451,143.666 414.393,143.940 414.563 C 144.415 414.856,147.484 412.921,147.687 412.200 C 147.749 411.980,147.755 319.144,147.699 205.897 L 147.598 -0.006 145.858 0.059 C 144.416 0.114,143.746 0.442,141.966 1.963 M148.000 205.600 C 148.000 342.400,148.134 411.200,148.400 411.200 C 148.666 411.200,148.800 342.400,148.800 205.600 C 148.800 68.800,148.666 0.000,148.400 0.000 C 148.134 0.000,148.000 68.800,148.000 205.600 M170.800 200.000 C 170.800 200.220,170.091 200.400,169.224 200.400 C 168.357 200.400,167.536 200.580,167.400 200.800 C 167.264 201.020,166.218 201.182,165.076 201.160 C 163.488 201.130,163.235 201.049,164.000 200.819 C 165.603 200.337,162.451 199.839,159.878 200.168 C 158.735 200.315,157.350 200.493,156.800 200.566 C 156.250 200.638,155.215 200.720,154.500 200.748 C 152.210 200.839,153.111 201.557,155.700 201.704 L 158.200 201.846 155.343 201.923 C 153.170 201.982,152.428 202.150,152.246 202.625 C 152.114 202.969,151.824 203.139,151.603 203.002 C 150.614 202.391,151.107 227.994,152.100 228.823 C 153.087 229.646,154.000 229.827,154.000 229.200 C 154.000 228.968,155.050 228.832,156.500 228.876 L 159.000 228.951 156.700 229.096 C 155.424 229.176,154.400 229.430,154.400 229.668 C 154.400 230.157,162.059 229.757,164.146 229.158 C 165.766 228.694,184.244 228.690,185.126 229.155 C 186.185 229.712,195.600 230.171,195.600 229.665 C 195.600 229.432,194.655 229.176,193.500 229.095 L 191.400 228.948 193.700 228.874 C 195.016 228.832,196.000 228.971,196.000 229.200 C 196.000 229.420,197.125 229.631,198.500 229.669 L 201.000 229.738 198.400 230.000 L 195.800 230.262 198.220 230.331 C 199.551 230.369,200.822 230.582,201.045 230.805 C 201.268 231.028,202.879 231.494,204.625 231.842 C 208.803 232.673,209.017 232.686,208.900 232.100 C 208.791 231.556,209.536 231.526,211.400 232.000 C 212.370 232.247,212.428 232.314,211.700 232.353 C 210.629 232.409,210.473 233.200,211.533 233.200 C 211.937 233.200,212.399 233.332,212.560 233.493 C 213.210 234.144,216.146 234.750,216.841 234.378 C 217.230 234.170,217.964 234.021,218.474 234.046 C 219.151 234.080,219.212 234.142,218.700 234.276 C 217.782 234.516,217.797 235.200,218.720 235.200 C 219.116 235.200,219.662 235.422,219.933 235.693 C 220.227 235.987,221.431 236.173,222.913 236.152 C 224.528 236.129,225.049 236.217,224.400 236.403 C 223.466 236.671,223.453 236.709,224.200 236.976 C 224.640 237.134,225.450 237.501,226.000 237.793 C 226.550 238.085,227.855 238.451,228.900 238.607 C 229.945 238.763,230.800 239.060,230.800 239.266 C 230.800 239.472,231.401 239.892,232.136 240.199 C 234.016 240.985,234.613 241.070,234.514 240.541 C 234.460 240.255,234.758 240.169,235.303 240.311 C 235.785 240.437,235.959 240.614,235.690 240.703 C 235.015 240.928,235.072 241.600,235.767 241.600 C 236.078 241.600,236.407 241.821,236.497 242.091 C 236.590 242.371,237.357 242.582,238.283 242.582 C 239.340 242.582,239.844 242.742,239.729 243.041 C 239.557 243.489,246.494 247.200,247.503 247.200 C 247.776 247.200,248.000 247.392,248.000 247.627 C 248.000 247.878,248.371 247.950,248.900 247.801 C 249.501 247.632,249.626 247.669,249.276 247.912 C 248.874 248.192,248.989 248.432,249.776 248.948 C 250.726 249.570,250.982 249.503,250.837 248.670 C 250.806 248.489,250.957 248.450,251.173 248.583 C 251.388 248.716,251.479 249.049,251.375 249.322 C 251.113 250.003,253.355 251.269,254.230 250.933 C 254.711 250.749,254.840 250.812,254.640 251.135 C 254.286 251.708,255.004 252.471,256.741 253.369 C 257.457 253.740,258.393 254.393,258.821 254.821 C 259.250 255.250,259.772 255.600,259.982 255.600 C 260.192 255.600,260.813 256.005,261.363 256.500 C 262.928 257.910,265.088 259.600,265.325 259.600 C 266.279 259.600,283.600 277.044,283.600 278.005 C 283.600 278.140,284.140 278.768,284.800 279.400 C 285.460 280.032,286.000 280.771,286.000 281.042 C 286.000 281.312,286.136 281.593,286.303 281.667 C 286.470 281.740,287.230 282.610,287.993 283.600 C 288.755 284.590,289.474 285.490,289.590 285.600 C 289.705 285.710,290.143 286.475,290.563 287.300 C 290.983 288.125,291.458 288.800,291.620 288.800 C 291.781 288.800,292.016 289.209,292.141 289.708 C 292.266 290.207,292.691 290.977,293.085 291.419 C 293.478 291.861,294.139 292.884,294.553 293.692 C 294.967 294.501,295.644 295.526,296.057 295.969 C 296.470 296.413,296.773 296.916,296.730 297.088 C 296.566 297.741,298.002 300.446,298.387 300.208 C 298.626 300.060,298.690 300.221,298.544 300.601 C 298.288 301.269,299.501 304.400,300.016 304.400 C 300.178 304.400,300.429 305.027,300.572 305.794 C 300.940 307.752,302.450 310.438,303.400 310.824 C 304.079 311.100,304.094 311.153,303.500 311.175 C 302.755 311.202,302.544 312.376,303.169 313.020 C 303.371 313.229,303.698 314.030,303.894 314.800 C 304.090 315.570,304.334 316.110,304.435 316.000 C 304.537 315.890,304.906 316.068,305.257 316.395 C 305.802 316.905,305.812 317.049,305.324 317.406 C 304.689 317.870,305.956 323.470,306.664 323.331 C 306.857 323.293,306.948 323.968,306.865 324.832 C 306.637 327.232,307.288 328.244,307.616 326.000 L 307.880 324.200 307.940 325.876 C 307.973 326.798,307.820 327.664,307.600 327.800 C 307.380 327.936,307.200 328.476,307.200 329.000 C 307.200 329.524,307.380 330.064,307.600 330.200 C 307.820 330.336,308.000 331.236,308.000 332.200 C 308.000 333.164,308.180 334.064,308.400 334.200 C 308.620 334.336,308.800 336.057,308.800 338.024 C 308.800 342.309,309.514 342.856,309.682 338.700 C 309.747 337.105,309.800 341.650,309.800 348.800 C 309.800 355.950,309.747 360.495,309.682 358.900 C 309.519 354.857,308.800 355.245,308.800 359.376 C 308.800 361.233,308.620 362.864,308.400 363.000 C 308.180 363.136,308.000 363.899,308.000 364.695 C 308.000 365.492,307.786 366.735,307.525 367.457 C 307.152 368.489,307.158 368.975,307.555 369.716 C 307.833 370.236,307.986 371.278,307.895 372.031 C 307.747 373.247,307.721 373.201,307.664 371.620 C 307.617 370.318,307.481 369.959,307.157 370.283 C 306.913 370.527,306.778 371.538,306.857 372.530 C 306.936 373.522,306.837 374.303,306.637 374.267 C 306.437 374.230,306.077 374.952,305.836 375.872 C 305.596 376.792,305.265 377.677,305.100 377.839 C 304.679 378.252,304.725 379.907,305.166 380.179 C 305.367 380.303,305.623 380.179,305.734 379.902 C 305.867 379.573,305.948 379.619,305.968 380.036 C 305.986 380.385,305.567 380.869,305.037 381.110 C 304.432 381.386,303.968 382.035,303.787 382.861 C 303.628 383.583,303.307 384.480,303.073 384.854 C 302.762 385.352,302.789 385.705,303.173 386.168 C 303.608 386.692,303.604 386.802,303.149 386.810 C 302.317 386.824,300.710 390.409,301.246 391.055 C 301.482 391.340,301.583 391.804,301.469 392.087 C 301.343 392.400,301.251 392.319,301.232 391.876 C 301.189 390.911,300.400 391.431,300.400 392.424 C 300.400 392.851,300.241 393.200,300.046 393.200 C 299.478 393.200,298.307 396.002,298.526 396.838 C 298.638 397.267,298.557 397.497,298.342 397.364 C 298.131 397.234,297.748 397.683,297.491 398.363 C 297.235 399.044,296.884 399.600,296.712 399.600 C 296.541 399.600,296.400 399.799,296.400 400.043 C 296.400 400.286,296.670 400.382,297.000 400.255 C 297.330 400.129,297.600 400.199,297.600 400.413 C 297.600 400.626,297.421 400.800,297.203 400.800 C 296.654 400.800,294.922 402.802,294.055 404.440 C 292.317 407.722,291.773 408.618,291.352 408.891 C 291.106 409.050,290.661 409.770,290.363 410.491 C 290.066 411.211,289.412 412.181,288.911 412.646 C 288.410 413.111,288.000 413.665,288.000 413.876 C 288.000 414.088,287.550 414.683,287.000 415.200 C 286.450 415.717,286.000 416.331,286.000 416.565 C 286.000 416.800,285.550 417.443,285.001 417.996 C 284.452 418.548,282.899 420.350,281.550 422.000 C 278.113 426.206,266.828 437.200,265.948 437.200 C 265.772 437.200,265.075 437.740,264.400 438.400 C 263.725 439.060,263.030 439.600,262.856 439.600 C 262.292 439.600,260.800 441.432,260.800 442.126 C 260.800 442.497,260.609 442.800,260.376 442.800 C 260.143 442.800,260.075 442.603,260.224 442.362 C 260.392 442.090,260.214 441.977,259.757 442.065 C 259.352 442.143,258.820 442.609,258.574 443.101 C 258.329 443.593,258.017 443.883,257.880 443.746 C 257.658 443.524,253.703 445.790,253.200 446.427 C 253.090 446.566,252.595 446.894,252.100 447.154 C 251.605 447.415,251.197 447.937,251.194 448.314 C 251.189 448.827,251.105 448.869,250.859 448.481 C 250.341 447.664,248.006 449.151,248.003 450.300 C 248.001 450.795,247.826 451.200,247.613 451.200 C 247.399 451.200,247.329 450.930,247.455 450.600 C 247.596 450.234,247.456 450.000,247.097 450.000 C 246.312 450.000,244.338 451.575,244.597 451.995 C 244.709 452.177,244.486 452.246,244.101 452.150 C 243.252 451.938,240.562 453.360,240.695 453.950 C 240.748 454.182,240.529 454.271,240.211 454.149 C 239.424 453.847,235.139 455.978,235.467 456.508 C 235.632 456.775,235.393 456.839,234.803 456.685 C 233.881 456.444,230.502 457.836,230.942 458.276 C 231.348 458.681,230.007 459.661,229.299 459.476 C 228.634 459.302,228.634 459.291,229.300 459.246 C 229.685 459.221,230.000 459.020,230.000 458.800 C 230.000 458.248,229.062 458.298,228.480 458.880 C 228.216 459.144,228.000 459.229,228.000 459.070 C 228.000 458.910,227.454 459.062,226.787 459.407 C 226.120 459.752,225.651 460.161,225.745 460.317 C 225.840 460.473,225.026 460.619,223.937 460.641 C 222.848 460.664,221.751 460.889,221.499 461.141 C 221.246 461.394,220.716 461.600,220.320 461.600 C 219.924 461.600,219.600 461.780,219.600 462.000 C 219.600 462.220,219.041 462.400,218.357 462.400 C 217.449 462.400,217.173 462.553,217.332 462.967 C 217.452 463.279,217.282 463.637,216.954 463.762 C 216.626 463.888,216.461 463.825,216.586 463.623 C 217.413 462.284,211.943 463.657,210.432 465.168 C 209.975 465.625,209.285 465.986,208.900 465.968 C 208.482 465.950,208.401 465.856,208.700 465.735 C 208.975 465.624,209.200 465.368,209.200 465.167 C 209.200 464.664,207.308 464.702,206.993 465.211 C 206.854 465.436,206.528 465.583,206.270 465.537 C 205.473 465.393,201.795 466.032,201.181 466.420 C 200.740 466.699,200.727 466.789,201.129 466.794 C 201.536 466.799,201.519 466.938,201.057 467.400 C 200.322 468.135,196.338 468.218,195.222 467.521 C 194.626 467.149,193.892 467.150,191.928 467.526 C 190.537 467.792,188.365 468.035,187.100 468.066 C 184.930 468.120,183.989 468.587,185.480 468.871 C 185.854 468.942,181.579 468.942,175.980 468.872 C 170.381 468.802,165.629 468.577,165.420 468.372 C 165.211 468.167,163.951 467.996,162.620 467.990 C 161.289 467.985,159.480 467.810,158.600 467.601 C 155.814 466.938,149.748 466.637,149.434 467.145 C 149.235 467.467,149.918 467.600,151.776 467.600 C 153.219 467.600,154.400 467.735,154.401 467.900 C 154.402 468.439,149.099 467.956,148.506 467.363 C 148.095 466.952,148.077 466.800,148.438 466.800 C 149.637 466.800,148.203 466.269,145.130 465.574 C 141.045 464.650,140.651 464.634,140.945 465.400 C 141.073 465.733,140.958 465.994,140.687 465.987 C 140.044 465.970,138.733 464.964,138.797 464.536 C 138.825 464.351,138.072 464.009,137.124 463.776 C 136.176 463.542,135.061 463.199,134.647 463.012 C 134.185 462.805,133.608 462.853,133.152 463.137 C 132.170 463.750,131.979 463.721,132.255 463.000 C 132.430 462.546,132.183 462.400,131.243 462.400 C 130.559 462.400,130.000 462.220,130.000 462.000 C 130.000 461.780,129.651 461.600,129.224 461.600 C 128.797 461.600,128.349 461.440,128.228 461.245 C 128.107 461.050,127.332 460.771,126.504 460.624 C 125.677 460.478,124.047 459.900,122.881 459.340 C 121.456 458.656,120.430 458.406,119.748 458.577 C 119.147 458.728,118.829 458.677,118.968 458.452 C 119.295 457.923,115.858 456.326,115.056 456.634 C 114.695 456.772,114.400 456.704,114.400 456.482 C 114.400 455.928,111.628 454.336,111.163 454.623 C 110.956 454.751,110.889 455.021,111.014 455.223 C 111.139 455.425,110.974 455.488,110.646 455.362 C 110.318 455.237,110.135 454.912,110.239 454.642 C 110.343 454.371,109.927 453.892,109.314 453.576 C 108.701 453.260,108.072 452.822,107.917 452.604 C 107.735 452.350,107.454 452.386,107.137 452.703 C 106.863 452.977,106.361 453.187,106.020 453.172 C 105.565 453.151,105.601 453.065,106.156 452.847 C 107.182 452.444,103.429 449.873,102.326 450.223 C 101.835 450.379,101.600 450.251,101.600 449.827 C 101.600 448.724,100.933 449.011,96.800 451.888 C 96.250 452.270,95.509 452.902,95.153 453.292 C 94.797 453.681,94.410 454.000,94.293 454.000 C 94.022 454.000,90.250 456.535,88.777 457.707 C 88.160 458.198,86.999 459.050,86.198 459.600 C 85.396 460.150,84.312 461.005,83.788 461.500 C 83.265 461.995,82.673 462.400,82.472 462.400 C 82.272 462.400,81.499 462.937,80.754 463.594 C 80.009 464.250,79.246 464.790,79.057 464.794 C 78.869 464.797,78.811 465.052,78.930 465.361 C 79.058 465.694,78.831 466.003,78.371 466.124 C 77.830 466.265,77.669 466.548,77.836 467.063 C 78.030 467.660,77.996 467.688,77.659 467.212 C 77.153 466.495,76.609 466.925,76.938 467.783 C 77.068 468.122,77.676 468.414,78.287 468.432 C 78.899 468.449,79.175 468.554,78.900 468.665 C 78.075 468.998,78.336 469.710,79.201 469.484 C 79.641 469.369,79.907 469.427,79.792 469.613 C 79.385 470.271,81.342 471.651,82.330 471.403 C 82.874 471.267,83.169 471.327,83.033 471.547 C 82.899 471.763,83.184 471.833,83.699 471.708 C 84.425 471.533,84.506 471.592,84.114 472.011 C 83.368 472.811,85.066 474.127,86.479 473.844 C 87.268 473.686,87.510 473.770,87.364 474.149 C 87.049 474.971,88.331 475.759,89.935 475.729 C 90.741 475.714,91.155 475.791,90.855 475.899 C 89.952 476.226,92.345 477.982,94.070 478.258 C 94.915 478.393,95.600 478.730,95.600 479.012 C 95.600 479.292,96.167 479.719,96.860 479.961 C 98.409 480.501,99.207 480.521,98.400 480.000 C 97.867 479.655,97.867 479.615,98.400 479.634 C 99.194 479.663,100.743 480.336,100.100 480.372 C 99.255 480.419,99.542 480.993,100.776 481.722 C 101.597 482.207,102.473 482.358,103.676 482.222 C 104.624 482.114,105.085 482.124,104.700 482.243 C 102.811 482.826,105.949 484.555,108.299 484.227 C 109.402 484.073,109.535 484.103,108.800 484.339 C 107.554 484.740,110.192 486.112,113.142 486.598 C 114.101 486.756,115.243 487.243,115.682 487.682 C 116.220 488.220,116.848 488.425,117.615 488.312 C 118.284 488.214,118.720 488.322,118.676 488.573 C 118.634 488.808,118.870 489.000,119.200 489.000 C 119.530 489.000,119.748 488.753,119.684 488.451 C 119.607 488.091,119.791 487.988,120.216 488.151 C 120.573 488.288,121.256 488.411,121.733 488.425 C 122.546 488.449,122.538 488.477,121.600 488.871 C 120.881 489.173,120.769 489.343,121.200 489.475 C 121.530 489.576,122.160 489.803,122.600 489.979 C 123.040 490.156,123.905 490.504,124.523 490.752 C 125.291 491.061,125.883 491.077,126.397 490.802 C 126.810 490.581,127.744 490.427,128.474 490.460 C 129.684 490.515,129.704 490.534,128.700 490.687 C 127.362 490.889,127.232 491.600,128.533 491.600 C 129.047 491.600,129.595 491.729,129.753 491.886 C 130.330 492.463,133.548 493.061,134.178 492.708 C 134.526 492.514,135.573 492.423,136.505 492.507 L 138.200 492.660 136.276 492.730 C 134.080 492.810,134.037 493.600,136.229 493.600 C 136.989 493.600,137.923 493.768,138.305 493.974 C 139.356 494.540,145.961 495.590,146.697 495.308 C 147.255 495.093,147.238 495.020,146.571 494.758 C 145.995 494.533,146.167 494.449,147.251 494.428 C 148.592 494.402,149.889 495.178,149.370 495.697 C 149.248 495.819,161.203 495.919,175.938 495.919 C 201.918 495.919,202.734 495.896,202.926 495.160 C 203.074 494.596,203.471 494.407,204.463 494.428 C 205.552 494.451,205.652 494.517,205.000 494.782 C 203.705 495.310,206.148 495.792,207.508 495.277 C 208.108 495.049,209.547 494.752,210.705 494.617 C 213.095 494.338,214.070 494.037,213.831 493.651 C 213.741 493.505,214.373 493.453,215.235 493.535 C 216.098 493.617,217.118 493.546,217.502 493.377 C 218.395 492.983,218.305 493.007,220.298 492.642 C 221.232 492.470,222.097 492.166,222.222 491.965 C 222.346 491.764,222.797 491.600,223.224 491.600 C 224.191 491.600,224.249 490.914,223.300 490.704 C 222.915 490.619,223.262 490.463,224.072 490.358 C 224.945 490.245,225.448 490.322,225.309 490.547 C 224.995 491.055,228.279 490.583,229.697 489.916 C 230.963 489.320,231.096 488.923,230.100 488.706 C 229.689 488.617,229.936 488.469,230.700 488.346 C 231.618 488.200,232.000 488.295,232.000 488.669 C 232.000 489.635,236.516 488.100,236.725 487.064 C 236.797 486.707,237.097 486.539,237.432 486.668 C 238.925 487.240,244.200 485.059,243.124 484.314 C 242.790 484.083,243.065 484.043,243.881 484.203 C 245.891 484.599,248.972 482.921,247.500 482.233 C 247.225 482.104,247.683 482.099,248.518 482.221 C 250.345 482.488,253.572 480.881,252.186 480.395 C 251.502 480.155,251.512 480.116,252.308 479.908 C 252.843 479.768,253.140 479.857,253.086 480.141 C 253.039 480.393,253.270 480.600,253.600 480.600 C 253.930 480.600,254.157 480.381,254.105 480.114 C 254.052 479.847,254.251 479.722,254.547 479.835 C 255.322 480.132,258.196 478.368,257.568 477.980 C 257.295 477.811,257.759 477.695,258.610 477.719 C 259.487 477.744,260.215 477.556,260.306 477.281 C 260.394 477.017,260.722 476.800,261.033 476.800 C 261.734 476.800,261.780 476.145,261.100 475.849 C 260.825 475.730,261.084 475.731,261.675 475.853 C 262.343 475.990,263.215 475.800,263.975 475.351 C 265.348 474.540,265.548 474.014,264.500 473.972 C 263.907 473.948,263.922 473.895,264.600 473.626 C 265.040 473.452,265.496 473.458,265.614 473.640 C 265.862 474.021,267.600 473.651,267.600 473.216 C 267.600 473.057,268.275 472.583,269.100 472.163 C 269.925 471.743,271.157 470.995,271.838 470.500 C 272.519 470.005,273.240 469.600,273.442 469.600 C 273.643 469.600,274.293 469.150,274.887 468.600 C 275.480 468.050,276.054 467.600,276.164 467.600 C 276.400 467.600,284.110 462.041,284.400 461.662 C 284.510 461.518,284.960 461.192,285.400 460.937 C 285.840 460.683,286.151 460.264,286.090 460.007 C 286.030 459.751,286.141 459.640,286.338 459.762 C 286.534 459.883,287.349 459.348,288.148 458.572 C 288.946 457.796,289.600 457.282,289.600 457.430 C 289.600 458.617,308.893 439.210,309.656 437.256 C 309.797 436.895,310.382 436.196,310.956 435.703 C 311.530 435.209,312.000 434.612,312.000 434.377 C 312.000 434.141,312.548 433.488,313.217 432.924 C 313.886 432.361,314.339 431.806,314.224 431.691 C 314.109 431.575,314.650 430.743,315.427 429.841 C 317.539 427.388,317.614 427.279,318.063 425.991 C 318.291 425.336,318.647 424.800,318.854 424.800 C 319.224 424.800,322.444 419.941,322.485 419.320 C 322.497 419.144,323.013 418.385,323.632 417.634 C 324.503 416.578,324.670 416.104,324.370 415.543 C 324.062 414.969,324.108 414.867,324.591 415.052 C 324.970 415.197,325.200 415.059,325.200 414.686 C 325.200 414.356,325.447 413.991,325.749 413.875 C 326.052 413.759,326.420 413.019,326.568 412.232 C 326.715 411.444,326.975 410.800,327.144 410.800 C 327.750 410.800,329.117 407.712,328.760 407.149 C 328.259 406.358,328.322 405.995,328.920 406.225 C 329.575 406.476,331.399 403.370,330.809 403.006 C 330.584 402.867,330.413 402.358,330.428 401.876 C 330.454 401.061,330.477 401.054,330.759 401.773 C 330.926 402.199,331.163 402.379,331.287 402.173 C 332.829 399.616,333.209 398.649,332.824 398.264 C 332.111 397.551,332.343 396.340,333.239 396.106 C 333.749 395.972,334.375 395.191,334.839 394.110 C 335.763 391.952,335.819 391.030,335.006 391.342 C 334.514 391.531,334.494 391.439,334.886 390.811 C 335.147 390.393,335.491 390.133,335.651 390.232 C 335.811 390.331,336.065 390.004,336.216 389.506 C 336.366 389.008,336.769 387.994,337.112 387.254 C 337.601 386.196,337.635 385.747,337.267 385.159 C 337.010 384.748,336.827 383.823,336.860 383.105 C 336.915 381.895,336.932 381.880,337.087 382.900 C 337.293 384.262,338.000 384.357,338.000 383.024 C 338.000 382.487,338.180 381.936,338.400 381.800 C 338.620 381.664,338.800 381.149,338.800 380.656 C 338.800 380.163,339.008 379.552,339.261 379.299 C 339.530 379.030,339.739 377.427,339.761 375.462 C 339.783 373.606,339.925 372.288,340.078 372.533 C 340.385 373.022,340.403 372.976,341.180 369.800 C 341.898 366.863,342.233 360.000,341.658 360.000 C 341.355 360.000,341.200 361.013,341.200 363.000 C 341.200 364.845,341.037 366.000,340.776 366.000 C 340.543 366.000,340.438 365.862,340.543 365.693 C 340.647 365.524,340.786 363.274,340.852 360.693 C 340.918 358.112,341.113 356.000,341.286 356.000 C 341.459 356.000,341.627 355.235,341.660 354.300 L 341.720 352.600 341.966 354.400 L 342.212 356.200 342.506 353.641 C 342.869 350.480,342.831 346.051,342.418 343.400 L 342.107 341.400 341.997 343.200 L 341.887 345.000 341.533 342.800 C 341.338 341.590,341.121 338.620,341.051 336.200 C 340.981 333.780,340.993 333.021,341.079 334.513 C 341.171 336.098,341.394 337.127,341.618 336.989 C 342.100 336.691,342.073 332.830,341.570 330.200 C 341.359 329.100,341.077 327.435,340.942 326.500 C 340.807 325.565,340.565 324.800,340.406 324.800 C 340.246 324.800,340.006 323.495,339.872 321.900 C 339.645 319.201,338.913 316.380,338.274 315.741 C 338.123 315.590,338.000 314.921,338.000 314.253 C 338.000 312.861,337.368 313.240,337.088 314.800 C 336.939 315.635,336.900 315.585,336.854 314.495 C 336.825 313.777,337.016 312.843,337.281 312.419 C 337.645 311.837,337.651 311.424,337.306 310.725 C 337.055 310.216,336.735 309.389,336.594 308.888 C 336.453 308.386,335.857 307.508,335.269 306.937 C 334.681 306.366,334.426 306.023,334.703 306.175 C 335.537 306.633,335.733 305.289,335.044 303.836 C 334.690 303.090,334.400 302.281,334.400 302.040 C 334.400 301.798,334.127 301.600,333.792 301.600 C 333.353 301.600,333.251 301.338,333.422 300.653 C 333.617 299.877,332.468 296.952,331.285 295.212 C 331.214 295.108,330.989 295.288,330.784 295.612 C 330.462 296.122,330.411 296.117,330.406 295.580 C 330.403 295.239,330.590 294.770,330.821 294.539 C 331.401 293.959,329.699 291.076,328.947 291.365 C 328.327 291.603,328.252 291.254,328.752 290.464 C 329.119 289.885,327.841 286.800,327.235 286.800 C 327.045 286.800,326.773 286.215,326.631 285.500 C 326.352 284.093,325.016 282.220,324.511 282.530 C 324.340 282.635,324.187 282.112,324.170 281.368 C 324.153 280.578,323.820 279.719,323.370 279.302 C 322.624 278.610,321.902 277.437,320.288 274.300 C 319.864 273.475,319.355 272.800,319.158 272.800 C 318.961 272.800,318.800 272.597,318.800 272.349 C 318.800 271.720,314.811 266.400,314.339 266.400 C 314.126 266.400,314.048 266.246,314.164 266.058 C 314.456 265.585,312.551 263.859,312.067 264.159 C 311.843 264.297,311.758 264.083,311.869 263.659 C 312.054 262.951,310.136 260.341,306.901 256.900 C 306.229 256.185,305.764 255.600,305.869 255.600 C 306.176 255.600,294.712 244.241,293.400 243.245 C 292.740 242.745,291.358 241.539,290.329 240.567 C 289.300 239.595,288.361 238.800,288.243 238.800 C 288.124 238.800,287.496 238.305,286.847 237.700 C 286.197 237.095,285.005 236.150,284.197 235.600 C 283.390 235.050,282.136 234.105,281.412 233.500 C 280.687 232.895,279.976 232.400,279.830 232.400 C 279.685 232.400,279.349 232.216,279.083 231.992 C 276.627 229.919,276.189 229.651,275.830 230.010 C 275.280 230.560,274.790 230.495,275.008 229.900 C 275.273 229.178,274.786 228.607,273.220 227.804 C 272.460 227.415,271.592 226.850,271.291 226.548 C 270.990 226.247,270.486 226.000,270.171 226.000 C 269.857 226.000,269.600 225.820,269.600 225.600 C 269.600 225.380,269.401 225.200,269.157 225.200 C 268.914 225.200,268.818 225.470,268.945 225.800 C 269.071 226.130,269.013 226.400,268.815 226.400 C 268.617 226.400,268.398 226.009,268.328 225.532 C 268.199 224.660,265.600 222.849,265.600 223.632 C 265.600 223.860,265.408 223.929,265.173 223.784 C 264.939 223.639,264.847 223.419,264.970 223.297 C 265.482 222.784,262.608 221.283,261.866 221.676 C 261.462 221.890,261.027 221.960,260.899 221.832 C 260.771 221.705,260.877 221.600,261.133 221.600 C 261.390 221.600,261.600 221.465,261.599 221.300 C 261.598 220.912,258.261 218.800,257.650 218.800 C 257.394 218.800,256.471 218.350,255.600 217.800 C 254.729 217.250,253.832 216.800,253.608 216.800 C 252.924 216.800,253.154 217.529,253.900 217.724 C 254.427 217.862,254.377 217.919,253.700 217.954 C 252.914 217.994,252.629 217.640,252.735 216.754 C 252.796 216.243,249.345 214.769,248.684 215.023 C 248.308 215.167,248.000 215.107,248.000 214.890 C 248.000 214.270,243.644 212.295,242.776 212.522 C 242.349 212.634,242.091 212.576,242.204 212.394 C 242.450 211.996,240.041 210.728,239.579 211.013 C 239.401 211.123,239.136 211.020,238.990 210.783 C 238.832 210.528,238.231 210.461,237.512 210.619 C 236.709 210.796,236.387 210.744,236.559 210.466 C 236.891 209.930,233.254 208.294,232.432 208.609 C 231.899 208.814,231.896 208.890,232.411 209.215 C 232.735 209.420,232.807 209.591,232.572 209.594 C 232.337 209.597,231.769 209.168,231.310 208.640 C 230.850 208.112,229.873 207.551,229.137 207.394 C 228.402 207.236,227.587 206.937,227.328 206.728 C 227.068 206.519,225.853 206.244,224.628 206.118 C 223.402 205.992,222.400 205.733,222.400 205.544 C 222.400 205.355,221.986 205.200,221.480 205.200 C 220.974 205.200,220.348 204.988,220.089 204.729 C 219.813 204.453,218.310 204.248,216.443 204.232 C 214.696 204.218,213.472 204.079,213.722 203.924 C 214.037 203.730,213.996 203.592,213.589 203.478 C 213.265 203.387,212.370 203.116,211.600 202.876 C 209.464 202.208,206.119 201.863,205.317 202.227 C 204.774 202.474,205.036 202.616,206.400 202.816 L 208.200 203.080 206.324 203.140 C 205.292 203.173,204.336 203.020,204.200 202.800 C 204.064 202.580,203.603 202.400,203.176 202.400 C 202.749 202.400,202.445 202.182,202.500 201.917 C 202.565 201.604,201.749 201.333,200.200 201.150 C 198.880 200.994,196.900 200.723,195.800 200.548 C 192.491 200.020,187.833 200.138,186.634 200.781 C 185.772 201.243,185.393 201.263,184.781 200.881 C 184.357 200.616,183.288 200.400,182.405 200.400 C 181.522 200.400,180.800 200.220,180.800 200.000 C 180.800 199.755,178.867 199.600,175.800 199.600 C 172.733 199.600,170.800 199.755,170.800 200.000 M197.700 201.889 C 196.985 201.978,195.815 201.978,195.100 201.889 C 194.385 201.801,194.970 201.728,196.400 201.728 C 197.830 201.728,198.415 201.801,197.700 201.889 M216.900 205.082 C 216.405 205.178,215.595 205.178,215.100 205.082 C 214.605 204.987,215.010 204.909,216.000 204.909 C 216.990 204.909,217.395 204.987,216.900 205.082 M177.500 227.897 C 176.015 227.974,173.585 227.974,172.100 227.897 C 170.615 227.820,171.830 227.757,174.800 227.757 C 177.770 227.757,178.985 227.820,177.500 227.897 M168.200 261.200 C 168.039 261.461,170.396 261.600,174.976 261.600 C 179.392 261.600,182.000 261.451,182.000 261.200 C 182.000 260.949,179.475 260.800,175.224 260.800 C 171.137 260.800,168.349 260.959,168.200 261.200 M159.200 261.683 C 154.084 262.562,152.325 263.391,154.900 263.711 C 156.062 263.855,156.024 263.879,154.549 263.936 C 153.641 263.971,152.676 264.268,152.404 264.596 C 152.132 264.923,151.750 265.093,151.555 264.972 C 151.350 264.846,151.200 272.548,151.200 283.134 L 151.200 301.515 152.358 302.755 C 153.508 303.987,156.976 303.655,156.193 302.388 C 156.061 302.175,156.233 302.000,156.576 302.000 C 156.919 302.000,157.200 301.820,157.200 301.600 C 157.200 301.380,157.695 301.225,158.300 301.254 C 159.243 301.301,159.272 301.334,158.500 301.482 C 158.005 301.578,157.600 301.839,157.600 302.063 C 157.600 302.514,160.545 302.146,161.674 301.554 C 162.044 301.359,162.799 301.200,163.350 301.200 C 164.460 301.200,165.089 300.583,164.302 300.266 C 163.986 300.138,164.047 300.051,164.467 300.032 C 164.833 300.014,165.193 299.847,165.267 299.660 C 165.340 299.473,168.010 299.229,171.200 299.119 C 174.532 299.003,176.234 299.051,175.200 299.229 C 174.210 299.401,171.915 299.554,170.100 299.570 C 168.186 299.588,166.800 299.768,166.800 300.000 C 166.800 300.543,173.476 300.524,173.812 299.981 C 173.989 299.694,174.250 299.709,174.636 300.030 C 175.068 300.389,175.340 300.382,175.800 300.000 C 176.215 299.656,176.400 299.641,176.400 299.951 C 176.400 300.251,177.657 300.400,180.200 300.400 C 184.998 300.400,185.238 299.678,180.500 299.498 L 177.000 299.365 180.929 299.282 C 184.749 299.202,185.530 299.404,186.022 300.600 C 186.189 301.006,190.821 302.370,192.100 302.389 C 193.267 302.407,192.882 301.603,191.700 301.554 C 191.011 301.525,190.864 301.438,191.307 301.323 C 192.150 301.103,194.426 302.035,194.147 302.486 C 194.040 302.659,194.458 302.985,195.076 303.209 C 195.694 303.433,196.588 303.814,197.062 304.055 C 197.536 304.297,198.119 304.374,198.357 304.227 C 198.595 304.080,199.186 304.328,199.670 304.780 C 200.155 305.231,200.787 305.600,201.075 305.600 C 201.364 305.600,201.600 305.780,201.600 306.000 C 201.600 306.220,201.899 306.400,202.265 306.400 C 202.631 306.400,203.801 306.959,204.866 307.642 C 206.084 308.424,207.057 308.787,207.489 308.621 C 207.867 308.476,208.044 308.489,207.884 308.649 C 207.536 308.997,209.141 310.800,209.800 310.800 C 210.053 310.800,210.683 311.250,211.200 311.800 C 211.717 312.350,212.314 312.800,212.528 312.800 C 212.957 312.800,218.987 318.870,220.101 320.423 C 220.486 320.960,221.429 322.345,222.196 323.500 C 222.963 324.655,223.767 325.600,223.982 325.600 C 224.198 325.600,224.278 325.853,224.159 326.163 C 224.040 326.472,224.406 327.459,224.971 328.355 C 225.537 329.251,226.000 330.170,226.000 330.397 C 226.000 330.625,226.180 331.123,226.400 331.505 C 226.620 331.887,226.979 332.706,227.199 333.324 C 227.419 333.942,227.741 334.360,227.916 334.252 C 228.090 334.144,228.163 334.652,228.078 335.381 C 227.993 336.109,228.121 336.827,228.362 336.976 C 228.615 337.133,228.800 336.955,228.800 336.557 C 228.800 336.177,228.920 335.987,229.067 336.134 C 229.214 336.281,229.106 336.828,228.826 337.351 C 228.447 338.060,228.430 338.508,228.759 339.124 C 229.002 339.577,229.200 340.579,229.200 341.350 C 229.200 342.122,229.380 342.864,229.600 343.000 C 229.836 343.146,230.000 345.530,230.000 348.800 C 230.000 352.070,229.836 354.454,229.600 354.600 C 229.380 354.736,229.200 355.469,229.200 356.229 C 229.200 356.989,228.984 357.957,228.719 358.381 C 228.339 358.989,228.353 359.365,228.786 360.175 C 229.088 360.738,229.214 361.319,229.067 361.466 C 228.920 361.613,228.800 361.433,228.800 361.067 C 228.800 360.700,228.600 360.400,228.356 360.400 C 228.086 360.400,227.975 360.938,228.073 361.772 C 228.161 362.527,228.090 363.056,227.916 362.948 C 227.643 362.780,226.944 364.103,226.621 365.400 C 226.519 365.809,226.160 366.808,225.796 367.700 C 225.683 367.975,225.246 368.740,224.825 369.400 C 224.403 370.060,224.045 370.915,224.029 371.300 C 224.013 371.685,223.825 372.000,223.610 372.000 C 223.396 372.000,222.920 372.585,222.552 373.300 C 221.216 375.898,213.864 384.374,212.914 384.413 C 212.208 384.441,210.370 386.428,210.642 386.869 C 210.838 387.184,210.711 387.251,210.252 387.075 C 209.823 386.911,208.967 387.253,207.926 388.007 C 207.021 388.663,206.114 389.200,205.911 389.200 C 205.066 389.200,204.239 390.453,204.835 390.830 C 205.296 391.122,205.276 391.189,204.724 391.194 C 204.352 391.197,203.943 391.031,203.815 390.825 C 203.577 390.438,200.400 391.925,200.400 392.423 C 200.400 392.574,199.675 392.814,198.789 392.955 C 196.132 393.380,192.884 394.935,194.054 395.221 C 194.575 395.348,193.599 395.455,191.887 395.459 C 190.058 395.464,188.581 395.659,188.307 395.933 C 188.050 396.190,187.336 396.400,186.720 396.400 C 186.104 396.400,185.600 396.580,185.600 396.800 C 185.600 397.020,185.990 397.200,186.467 397.200 C 187.849 397.200,187.165 397.466,185.079 397.739 C 183.855 397.899,183.247 397.847,183.403 397.595 C 183.541 397.372,183.158 397.193,182.524 397.184 C 173.606 397.054,167.843 397.206,167.613 397.578 C 167.427 397.879,166.671 397.903,165.172 397.654 C 163.977 397.456,163.416 397.272,163.924 397.247 C 165.214 397.181,164.598 396.400,163.256 396.400 C 162.653 396.400,161.935 396.175,161.660 395.900 C 161.342 395.583,160.105 395.417,158.280 395.445 C 156.696 395.470,155.725 395.374,156.122 395.232 C 156.703 395.024,156.508 394.803,155.122 394.098 C 154.002 393.529,153.347 393.378,153.248 393.667 C 152.972 394.474,151.864 395.563,151.529 395.356 C 151.348 395.244,151.200 398.847,151.200 403.362 C 151.200 411.468,151.189 411.578,150.300 412.049 C 149.805 412.311,149.109 412.857,148.753 413.263 C 148.397 413.668,147.924 414.000,147.702 414.000 C 147.480 414.000,147.054 414.294,146.755 414.654 C 146.456 415.014,145.513 415.750,144.659 416.289 C 143.806 416.828,143.020 417.601,142.914 418.007 C 142.800 418.445,142.490 418.656,142.152 418.526 C 141.394 418.235,139.363 420.229,140.084 420.558 C 140.368 420.687,140.218 420.699,139.751 420.585 C 138.930 420.385,138.308 420.785,134.087 424.230 C 133.365 424.820,132.575 425.684,132.333 426.151 C 132.090 426.618,132.027 426.874,132.193 426.719 C 132.490 426.443,133.600 427.296,133.600 427.800 C 133.600 428.360,134.711 429.117,135.923 429.383 C 136.744 429.563,137.200 429.509,137.200 429.232 C 137.200 428.994,136.900 428.800,136.533 428.800 C 136.167 428.800,135.987 428.680,136.134 428.533 C 136.505 428.162,138.423 429.239,138.157 429.670 C 137.739 430.347,141.496 431.653,143.099 431.388 C 144.039 431.233,144.408 431.275,144.087 431.502 C 143.724 431.758,144.074 432.021,145.287 432.404 C 146.229 432.701,147.224 433.113,147.498 433.319 C 147.771 433.525,148.446 433.608,148.998 433.503 C 149.549 433.397,150.000 433.466,150.000 433.655 C 150.000 433.845,150.731 434.000,151.624 434.000 C 152.604 434.000,153.149 433.842,153.000 433.600 C 152.687 433.094,153.217 433.094,154.000 433.600 C 154.400 433.858,154.433 433.990,154.100 433.994 C 153.825 433.997,153.600 434.180,153.600 434.400 C 153.600 434.620,154.194 434.800,154.920 434.800 C 155.646 434.800,156.423 434.983,156.646 435.206 C 157.257 435.817,164.800 436.238,164.800 435.660 C 164.800 435.365,163.949 435.200,162.424 435.200 C 161.117 435.200,159.963 435.065,159.860 434.900 C 159.590 434.465,166.928 434.784,167.380 435.227 C 167.589 435.432,168.579 435.624,169.580 435.653 C 171.356 435.704,171.366 435.712,170.000 435.965 L 168.600 436.225 170.200 436.508 C 172.334 436.886,178.205 436.836,180.200 436.423 L 181.800 436.092 180.200 435.987 C 177.767 435.828,182.374 435.181,187.000 435.033 C 188.980 434.969,189.655 434.990,188.500 435.079 C 187.345 435.169,186.400 435.436,186.400 435.672 C 186.400 436.198,193.598 435.732,194.180 435.168 C 194.389 434.966,195.053 434.800,195.656 434.800 C 196.930 434.800,197.541 434.142,196.505 433.886 C 196.117 433.791,196.863 433.805,198.162 433.918 C 199.806 434.062,200.443 433.993,200.256 433.690 C 200.108 433.451,200.170 433.142,200.393 433.004 C 200.617 432.866,200.800 432.943,200.800 433.176 C 200.800 433.682,202.479 433.744,203.020 433.259 C 203.229 433.071,204.267 432.685,205.327 432.399 C 206.695 432.031,207.101 431.775,206.727 431.516 C 206.389 431.282,206.658 431.242,207.480 431.403 C 208.871 431.677,212.636 430.306,212.243 429.670 C 211.977 429.239,213.895 428.162,214.266 428.533 C 214.413 428.680,214.233 428.800,213.867 428.800 C 213.500 428.800,213.200 428.980,213.200 429.200 C 213.200 429.420,213.488 429.600,213.840 429.600 C 214.842 429.600,217.200 428.361,217.200 427.834 C 217.200 427.562,217.821 427.341,218.653 427.317 C 219.452 427.295,220.217 427.124,220.353 426.937 C 220.489 426.751,221.095 426.344,221.700 426.032 C 222.305 425.720,222.800 425.303,222.800 425.105 C 222.800 424.908,223.160 424.860,223.600 425.000 C 224.059 425.146,224.400 425.072,224.400 424.827 C 224.400 424.592,224.668 424.400,224.997 424.400 C 225.325 424.400,225.807 424.058,226.068 423.640 C 226.329 423.222,226.768 422.966,227.044 423.072 C 227.629 423.297,230.057 421.615,229.784 421.174 C 229.682 421.009,229.919 420.958,230.311 421.061 C 231.157 421.282,232.800 419.972,232.800 419.077 C 232.800 418.730,233.008 418.319,233.262 418.162 C 233.537 417.991,233.615 418.051,233.455 418.311 C 232.148 420.426,236.519 417.659,242.159 412.800 C 243.053 412.030,244.021 411.220,244.311 411.000 C 245.584 410.034,246.353 409.048,246.124 408.678 C 245.988 408.457,246.073 408.398,246.314 408.547 C 246.555 408.696,247.438 408.119,248.276 407.266 C 251.055 404.436,253.575 401.594,253.988 400.823 C 254.212 400.405,254.697 399.761,255.065 399.392 C 255.709 398.748,258.441 395.278,259.516 393.739 C 260.326 392.578,261.878 389.934,262.649 388.400 C 263.037 387.630,263.775 386.318,264.291 385.485 C 264.807 384.652,265.116 383.787,264.978 383.564 C 264.840 383.340,265.058 382.850,265.463 382.474 C 266.757 381.275,267.303 380.006,266.790 379.388 C 266.539 379.086,266.418 378.515,266.521 378.119 C 266.664 377.568,266.718 377.616,266.754 378.324 C 266.809 379.423,267.600 379.099,267.600 377.976 C 267.600 377.549,267.738 377.200,267.906 377.200 C 268.323 377.200,269.600 374.183,269.600 373.197 C 269.600 372.759,269.420 372.400,269.200 372.400 C 268.980 372.400,268.800 372.700,268.800 373.067 C 268.800 373.433,268.680 373.613,268.533 373.466 C 268.166 373.100,269.237 371.175,269.661 371.438 C 270.013 371.655,270.781 370.004,270.980 368.600 C 271.043 368.160,271.227 367.485,271.390 367.100 C 271.787 366.161,271.339 365.074,270.703 365.433 C 270.300 365.661,270.300 365.610,270.700 365.179 C 270.975 364.882,271.200 364.305,271.200 363.896 C 271.200 363.487,271.367 363.256,271.571 363.382 C 272.875 364.188,274.080 345.442,273.062 340.200 C 272.891 339.320,272.556 337.340,272.319 335.800 C 272.001 333.736,271.805 333.210,271.572 333.800 C 271.260 334.591,271.256 334.591,271.228 333.780 C 271.213 333.329,270.984 332.744,270.720 332.480 C 270.347 332.107,270.391 332.000,270.920 332.000 C 271.359 332.000,271.600 331.681,271.600 331.100 C 271.599 329.778,270.121 326.184,269.626 326.300 C 269.392 326.355,269.200 326.130,269.200 325.800 C 269.200 325.470,269.020 325.200,268.800 325.200 C 268.580 325.200,268.421 324.795,268.446 324.300 C 268.481 323.623,268.538 323.573,268.676 324.100 C 268.776 324.485,269.025 324.800,269.229 324.800 C 269.878 324.800,269.627 323.461,268.598 321.432 C 268.049 320.350,267.600 319.225,267.600 318.932 C 267.600 318.132,266.805 318.292,266.768 319.100 C 266.749 319.540,266.660 319.609,266.531 319.287 C 266.417 319.004,266.549 318.503,266.822 318.173 C 267.344 317.544,266.672 315.600,265.932 315.600 C 265.750 315.600,265.599 315.285,265.598 314.900 C 265.596 314.515,265.353 313.750,265.058 313.200 C 264.763 312.650,264.101 311.390,263.587 310.400 C 263.073 309.410,262.236 308.091,261.726 307.469 C 261.217 306.847,260.800 306.116,260.800 305.845 C 260.800 305.573,260.479 305.002,260.087 304.575 C 259.695 304.149,258.987 303.170,258.514 302.400 C 258.040 301.630,257.308 300.632,256.887 300.182 C 256.466 299.732,256.049 299.175,255.961 298.944 C 255.344 297.334,246.935 288.669,246.344 289.035 C 246.076 289.200,245.983 289.151,246.126 288.919 C 246.264 288.697,246.067 288.219,245.688 287.857 C 243.009 285.295,240.145 282.816,239.858 282.809 C 239.669 282.804,239.161 282.350,238.729 281.800 C 238.296 281.250,237.707 280.800,237.420 280.800 C 237.133 280.800,236.671 280.526,236.393 280.191 C 236.086 279.821,235.556 279.674,235.044 279.817 C 234.470 279.977,234.367 279.936,234.721 279.690 C 235.541 279.118,231.163 276.250,229.939 276.557 C 229.423 276.687,229.245 276.682,229.545 276.548 C 230.333 276.194,228.033 274.298,227.110 274.539 C 226.719 274.642,226.482 274.591,226.584 274.426 C 226.823 274.040,224.875 272.600,223.592 272.215 C 223.047 272.051,221.842 271.482,220.916 270.951 C 219.615 270.205,218.842 270.029,217.516 270.179 C 216.572 270.286,216.115 270.276,216.500 270.157 C 218.298 269.602,215.441 267.791,213.378 268.178 C 212.202 268.398,212.048 268.339,212.274 267.753 C 212.483 267.207,212.363 267.116,211.667 267.298 C 211.190 267.423,210.900 267.362,211.024 267.162 C 211.413 266.532,209.314 266.024,207.303 266.262 C 205.527 266.473,205.333 266.410,204.917 265.496 C 204.423 264.413,202.275 263.758,200.683 264.205 C 200.075 264.375,199.967 264.337,200.334 264.082 C 200.756 263.789,200.714 263.671,200.134 263.521 C 199.160 263.268,198.334 263.569,198.640 264.065 C 198.798 264.321,198.195 264.362,196.943 264.180 C 194.714 263.856,194.180 263.600,195.733 263.600 C 197.131 263.600,197.108 262.952,195.700 262.673 C 188.614 261.273,185.609 261.045,186.169 261.949 C 186.492 262.472,164.227 262.226,163.671 261.700 C 163.079 261.140,162.377 261.137,159.200 261.683 M339.087 323.095 C 338.995 323.703,338.917 323.300,338.914 322.200 C 338.911 321.100,338.987 320.603,339.082 321.095 C 339.177 321.586,339.179 322.486,339.087 323.095 M272.800 342.048 C 272.800 342.331,272.542 342.212,272.213 341.776 C 271.442 340.758,271.433 340.176,272.200 340.943 C 272.530 341.273,272.800 341.770,272.800 342.048 M231.097 351.083 C 231.020 352.578,230.956 351.460,230.955 348.600 C 230.955 345.740,231.018 344.518,231.096 345.883 C 231.174 347.249,231.174 349.589,231.097 351.083 M310.296 351.100 C 310.216 352.365,310.151 351.330,310.151 348.800 C 310.151 346.270,310.216 345.235,310.296 346.500 C 310.375 347.765,310.375 349.835,310.296 351.100 M339.082 376.100 C 338.987 376.595,338.909 376.190,338.909 375.200 C 338.909 374.210,338.987 373.805,339.082 374.300 C 339.178 374.795,339.178 375.605,339.082 376.100 M332.800 397.200 C 332.800 397.947,332.907 398.053,333.280 397.680 C 333.653 397.307,333.653 397.093,333.280 396.720 C 332.907 396.347,332.800 396.453,332.800 397.200 M196.000 467.200 C 196.000 467.420,196.810 467.600,197.800 467.600 C 198.790 467.600,199.600 467.420,199.600 467.200 C 199.600 466.980,198.790 466.800,197.800 466.800 C 196.810 466.800,196.000 466.980,196.000 467.200 M179.500 469.899 C 176.915 469.968,172.685 469.968,170.100 469.899 C 167.515 469.829,169.630 469.772,174.800 469.772 C 179.970 469.772,182.085 469.829,179.500 469.899 M216.900 492.682 C 216.405 492.778,215.595 492.778,215.100 492.682 C 214.605 492.587,215.010 492.509,216.000 492.509 C 216.990 492.509,217.395 492.587,216.900 492.682 M144.000 493.972 C 144.000 494.177,144.405 494.422,144.900 494.518 C 145.672 494.666,145.643 494.699,144.700 494.746 C 144.095 494.775,143.600 494.631,143.600 494.425 C 143.600 494.219,143.015 493.978,142.300 493.889 C 141.020 493.731,141.023 493.727,142.500 493.664 C 143.325 493.629,144.000 493.767,144.000 493.972 M210.705 493.875 C 210.322 493.975,209.602 493.979,209.105 493.883 C 208.607 493.787,208.920 493.705,209.800 493.701 C 210.680 493.696,211.087 493.775,210.705 493.875 " stroke="none" fill="#04fc04" fill-rule="evenodd"></path><path id="path1" d="" stroke="none" fill="#08fc04" fill-rule="evenodd"></path><path id="path2" d="" stroke="none" fill="#08fc04" fill-rule="evenodd"></path><path id="path3" d="" stroke="none" fill="#08fc04" fill-rule="evenodd"></path><path id="path4" d="" stroke="none" fill="#08fc04" fill-rule="evenodd"></path></g></svg>